# xmcd
#
# Track frame offsets: 
#        150
#        21552
#        35195
#        54502
#        70800
#        87590
#        102708
#        129655
#        149350
#        179370
#
# Disc length: 2571 seconds
#
# Revision: 0
# Processed by: cddbd v1.5.2PL0 Copyright (c) Steve Scherf et al.
# Submitted via: ExactAudioCopy v0.99pb3
#
DISCID=9d0a090a
DTITLE=Little G Weevil - Southern Experience
DYEAR=2009
DGENRE=Blues
TTITLE0=Hey Jody
TTITLE1=The Woman I Ain't Never Seen
TTITLE2=Going Back South
TTITLE3=Place A Dollar In My Hand
TTITLE4=Anson And Sam
TTITLE5=Weird Dancing Woman
TTITLE6=Chocolate Pie
TTITLE7=Glad To Have You Back
TTITLE8=Nobody Loves The Blues But Me
TTITLE9=She's The One
EXTD=
EXTT0=
EXTT1=
EXTT2=
EXTT3=
EXTT4=
EXTT5=
EXTT6=
EXTT7=
EXTT8=
EXTT9=
PLAYORDER=
